# xmcd
# Track frame offsets:
# 150
# 12522
# 21070
# 32770
# 44540
# 53910
# 64360
# 75887
# 87137
# 99105
# 110227
# 120920
# 133017
#
# Disc length: 1918 seconds
# Revision: 2
# Processed by: cddbd v1.5.1PL0 Copyright (c) Steve Scherf et al.
# Submitted via: VisiTrax 2.9.7.197 - For more info visit www.synapsa.com
#
DISCID=9f077c0d
DTITLE=Cooke, Sam - The Best Of Sam Cooke
DYEAR=1988
DGENRE=Soul
TTITLE0=You Send Me
TTITLE1=Only Sixteen
TTITLE2=Everybody Loves To Cha Cha
TTITLE3=For Sentimental Reasons
TTITLE4=Wonderful World
TTITLE5=Summertime
TTITLE6=Chain Gang
TTITLE7=Cupid
TTITLE8=Twistin' The Night Away
TTITLE9=Sad Mood
TTITLE10=Having A Party
TTITLE11=Bring It On Home To Me
TTITLE12=Summertime (Alternate Version)
EXTD=60
EXTT0=
EXTT1=
EXTT2=
EXTT3=
EXTT4=
EXTT5=
EXTT6=
EXTT7=
EXTT8=
EXTT9=
EXTT10=
EXTT11=
EXTT12=
PLAYORDER=
